<svg width="82" height="82" viewBox="0 0 82 82" fill="none" xmlns="http://www.w3.org/2000/svg">
<circle cx="41" cy="41" r="41" fill="white"/>
<path d="M36.32 48.08C36.32 45.92 36.8 44.14 37.76 42.74C38.76 41.3 40.2 39.74 42.08 38.06C43.52 36.78 44.58 35.68 45.26 34.76C45.98 33.8 46.34 32.72 46.34 31.52C46.34 29.84 45.66 28.48 44.3 27.44C42.94 26.4 41.12 25.88 38.84 25.88C34.52 25.88 31.26 27.42 29.06 30.5L23.24 26.72C24.96 24.36 27.18 22.56 29.9 21.32C32.62 20.04 35.82 19.4 39.5 19.4C43.98 19.4 47.54 20.38 50.18 22.34C52.86 24.26 54.2 26.92 54.2 30.32C54.2 31.96 53.92 33.4 53.36 34.64C52.84 35.88 52.2 36.94 51.44 37.82C50.68 38.66 49.68 39.64 48.44 40.76C46.92 42.12 45.78 43.32 45.02 44.36C44.3 45.4 43.94 46.64 43.94 48.08H36.32ZM40.16 62.42C38.76 62.42 37.6 61.98 36.68 61.1C35.8 60.18 35.36 59.06 35.36 57.74C35.36 56.42 35.8 55.32 36.68 54.44C37.6 53.56 38.76 53.12 40.16 53.12C41.52 53.12 42.64 53.56 43.52 54.44C44.44 55.32 44.9 56.42 44.9 57.74C44.9 59.06 44.44 60.18 43.52 61.1C42.64 61.98 41.52 62.42 40.16 62.42Z" fill="black"/>
</svg>
